<mxfile host="app.diagrams.net" modified="2020-09-26T21:23:22.596Z" agent="5.0 (Windows NT 10.0; Win64; x64) AppleWebKit/537.36 (KHTML, like Gecko) Chrome/85.0.4183.121 Safari/537.36" etag="J9AUwS7HfcOlKCiUwti4" version="13.7.5" type="github">
  <diagram name="Page-1" id="c9db0220-8083-56f3-ca83-edcdcd058819">
    <mxGraphModel dx="1182" dy="732" grid="1" gridSize="10" guides="1" tooltips="1" connect="1" arrows="1" fold="1" page="1" pageScale="1.5" pageWidth="826" pageHeight="1169" background="#ffffff" math="0" shadow="0">
      <root>
        <mxCell id="0" style=";html=1;" />
        <mxCell id="1" style=";html=1;" parent="0" />
        <mxCell id="3d76a8aef4d5c911-1" value="" style="html=1;shadow=0;dashed=0;shape=mxgraph.bootstrap.rect;fillColor=#222222;strokeColor=none;whiteSpace=wrap;rounded=0;fontSize=12;fontColor=#000000;align=center;fontStyle=1;" parent="1" vertex="1">
          <mxGeometry x="38" y="70" width="1150" height="40" as="geometry" />
        </mxCell>
        <mxCell id="3d76a8aef4d5c911-2" value="Bootstrap Budget!" style="html=1;shadow=0;dashed=0;fillColor=none;strokeColor=none;shape=mxgraph.bootstrap.rect;fontSize=14;whiteSpace=wrap;fontStyle=1;fontColor=#FFFFFF;" parent="3d76a8aef4d5c911-1" vertex="1">
          <mxGeometry x="65" width="150" height="40" as="geometry" />
        </mxCell>
        <mxCell id="3d76a8aef4d5c911-7" value="About" style="html=1;shadow=0;dashed=0;fillColor=none;shape=mxgraph.bootstrap.rect;whiteSpace=wrap;strokeColor=#FFFFFF;fontColor=#FFFFFF;" parent="3d76a8aef4d5c911-1" vertex="1">
          <mxGeometry x="732" width="115" height="40" as="geometry" />
        </mxCell>
        <mxCell id="3d76a8aef4d5c911-8" value="Demo" style="html=1;shadow=0;dashed=0;fillColor=none;shape=mxgraph.bootstrap.rect;whiteSpace=wrap;fontColor=#FFFFFF;strokeColor=#FFFFFF;" parent="3d76a8aef4d5c911-1" vertex="1">
          <mxGeometry x="847" width="100.625" height="40" as="geometry" />
        </mxCell>
        <mxCell id="Nner8vEzbAquBmYjIafv-1" value="Logo" style="ellipse;whiteSpace=wrap;html=1;opacity=30;fontColor=#F5F5F5;" vertex="1" parent="3d76a8aef4d5c911-1">
          <mxGeometry x="6" width="60" height="40" as="geometry" />
        </mxCell>
        <mxCell id="Nner8vEzbAquBmYjIafv-2" value="Download" style="html=1;shadow=0;dashed=0;fillColor=none;shape=mxgraph.bootstrap.rect;whiteSpace=wrap;fontColor=#FFFFFF;strokeColor=#FFFFFF;" vertex="1" parent="3d76a8aef4d5c911-1">
          <mxGeometry x="947.63" width="100.625" height="40" as="geometry" />
        </mxCell>
        <mxCell id="Nner8vEzbAquBmYjIafv-3" value="Source" style="html=1;shadow=0;dashed=0;fillColor=none;shape=mxgraph.bootstrap.rect;whiteSpace=wrap;fontColor=#FFFFFF;strokeColor=#FFFFFF;" vertex="1" parent="3d76a8aef4d5c911-1">
          <mxGeometry x="1048.26" width="100.625" height="40" as="geometry" />
        </mxCell>
        <mxCell id="3d76a8aef4d5c911-24" value="Welcome to Bootstrap Budget!&lt;br&gt;&lt;br&gt;" style="html=1;shadow=0;dashed=0;shape=mxgraph.bootstrap.rrect;rSize=5;fontSize=12;strokeColor=#dddddd;align=left;spacing=10;verticalAlign=top;whiteSpace=wrap;rounded=0;" parent="1" vertex="1">
          <mxGeometry x="38" y="120" width="1142" height="160" as="geometry" />
        </mxCell>
      </root>
    </mxGraphModel>
  </diagram>
</mxfile>
